<?xml version="1.0" encoding="UTF-8" standalone="no"?>
<!DOCTYPE svg PUBLIC "-//W3C//DTD SVG 1.1//EN" "http://www.w3.org/Graphics/SVG/1.1/DTD/svg11.dtd">
<svg xmlns="http://www.w3.org/2000/svg" version="1.1" viewBox="0.00 0.00 812.00 812.00">
<path fill="#ffffff" d="
  M 802.33 406.00
  A 396.33 396.33 0.0 0 1 406.00 802.33
  A 396.33 396.33 0.0 0 1 9.67 406.00
  A 396.33 396.33 0.0 0 1 406.00 9.67
  A 396.33 396.33 0.0 0 1 802.33 406.00
  Z
  M 331.50 392.42
  Q 333.05 393.55 331.18 394.00
  C 318.03 397.17 306.53 400.06 294.51 407.52
  C 286.01 412.80 276.66 422.11 269.38 429.40
  Q 251.62 447.17 241.09 470.28
  Q 233.56 486.78 229.23 501.40
  Q 215.67 547.18 214.69 596.25
  C 214.64 598.39 213.47 601.33 214.62 604.22
  Q 214.80 604.68 214.72 605.18
  Q 213.29 613.79 214.79 622.40
  C 215.53 626.64 211.98 628.14 216.46 632.04
  C 233.50 646.86 251.57 660.24 271.28 670.78
  C 299.26 685.74 326.64 695.30 356.49 701.03
  Q 424.74 714.13 490.51 692.33
  Q 521.72 681.99 549.37 666.75
  Q 557.90 662.05 566.39 656.27
  Q 583.25 644.79 598.87 631.61
  Q 599.47 631.10 599.57 630.00
  Q 600.45 620.52 599.04 612.25
  Q 598.96 611.76 599.17 611.30
  C 600.33 608.70 599.61 607.30 599.49 604.94
  Q 598.50 584.32 597.96 577.50
  Q 593.54 521.21 571.29 469.69
  Q 566.81 459.30 562.10 451.96
  C 553.61 438.71 542.16 426.55 530.50 416.63
  Q 509.91 399.12 483.04 394.96
  A 1.57 1.57 0.0 0 1 482.32 392.17
  Q 490.31 385.97 497.64 379.89
  C 514.89 365.59 526.66 347.64 536.20 327.60
  A 2.04 2.03 -78.3 0 1 537.95 326.44
  C 545.65 326.11 554.29 326.12 561.22 324.42
  Q 575.89 320.82 586.03 310.31
  Q 602.25 293.52 604.84 269.45
  C 605.16 266.49 604.44 263.75 604.07 260.78
  C 601.63 241.30 586.54 224.31 569.68 216.27
  C 559.87 211.59 548.89 210.64 538.00 211.04
  Q 537.47 211.06 537.25 210.58
  C 524.22 182.64 506.19 158.64 479.33 143.01
  Q 472.50 139.03 461.37 134.26
  Q 426.26 119.19 388.98 110.48
  C 384.98 109.55 382.73 108.24 378.50 110.05
  C 370.65 113.42 378.29 121.63 382.18 124.35
  Q 383.18 125.06 383.16 126.09
  A 0.61 0.61 0.0 0 1 382.66 126.68
  C 371.23 128.76 359.45 131.49 349.09 135.67
  C 317.17 148.52 290.98 175.58 277.83 207.04
  Q 276.52 210.19 274.05 211.51
  Q 273.59 211.76 273.12 211.51
  Q 272.64 211.24 272.25 211.21
  C 255.07 209.61 239.84 214.88 227.48 226.33
  C 218.50 234.64 212.84 244.74 210.37 256.57
  C 209.89 258.87 209.96 261.73 209.54 264.31
  Q 209.14 266.85 209.49 269.16
  C 210.05 272.79 209.96 276.58 210.74 279.89
  C 216.12 302.76 232.96 320.91 256.35 325.32
  C 262.04 326.39 268.80 325.93 275.10 326.05
  Q 275.64 326.06 275.89 326.54
  C 286.81 347.23 297.60 365.80 314.58 379.42
  Q 323.34 386.44 331.50 392.42
  Z"
/>
</svg>
