<?xml version="1.0" encoding="UTF-8" standalone="no"?>
<!DOCTYPE svg PUBLIC "-//W3C//DTD SVG 1.1//EN" "http://www.w3.org/Graphics/SVG/1.1/DTD/svg11.dtd">
<svg xmlns="http://www.w3.org/2000/svg" version="1.1" viewBox="0.00 0.00 812.00 812.00">
<path fill="#edf0ef" d="
  M 215.19 598.16
  C 215.64 589.06 215.84 578.78 216.60 570.62
  Q 219.23 542.21 226.12 514.48
  C 232.99 486.78 244.87 457.18 263.97 435.98
  Q 272.05 427.01 284.56 416.06
  C 298.58 403.79 313.44 398.61 331.43 394.79
  A 1.58 1.58 0.0 0 0 332.03 391.96
  C 318.46 382.12 306.26 372.25 296.02 358.91
  C 288.85 349.57 282.43 337.62 276.68 326.54
  A 1.91 1.89 76.3 0 0 275.02 325.52
  C 269.08 325.45 262.55 325.90 257.05 324.87
  Q 233.98 320.53 220.60 300.73
  C 201.37 272.28 209.09 235.71 239.07 218.60
  Q 254.43 209.84 272.61 211.99
  C 274.35 212.20 276.86 211.09 277.46 209.66
  C 288.32 183.48 306.86 160.49 330.94 145.56
  C 346.54 135.88 364.26 130.54 381.96 127.52
  A 2.92 2.90 -78.5 0 0 383.90 126.23
  Q 384.24 125.70 383.93 124.90
  Q 383.74 124.41 383.12 123.99
  Q 377.86 120.48 375.34 114.70
  Q 375.13 114.20 375.42 113.75
  Q 377.32 110.84 380.34 110.07
  Q 382.27 109.58 386.09 110.46
  Q 428.13 120.13 464.98 136.49
  Q 501.63 152.76 523.21 186.55
  Q 529.74 196.78 536.05 209.71
  C 536.96 211.59 538.73 211.80 540.82 211.68
  Q 570.84 209.97 590.26 232.54
  C 607.01 252.00 608.19 275.56 595.05 297.45
  C 585.73 312.98 572.14 322.88 553.99 325.36
  C 549.11 326.03 543.29 325.72 537.95 325.76
  A 2.26 2.24 13.2 0 0 535.96 326.98
  C 530.59 337.40 524.95 348.58 518.12 357.47
  Q 503.24 376.82 482.79 390.55
  C 482.35 390.84 481.66 391.65 481.39 392.04
  A 2.08 2.08 0.0 0 0 482.63 395.24
  C 488.01 396.49 493.75 397.52 498.68 399.19
  Q 518.73 406.00 532.99 419.76
  Q 544.99 431.36 550.81 437.70
  C 558.17 445.72 563.91 455.10 568.75 465.62
  C 587.68 506.78 597.50 552.52 598.53 597.94
  A 1.53 1.52 66.9 0 0 601.13 598.99
  Q 616.86 583.36 629.22 564.01
  Q 631.74 560.07 639.81 545.49
  Q 681.42 470.34 671.77 384.63
  Q 665.84 331.91 638.45 286.32
  C 635.00 280.58 627.75 270.39 624.52 262.68
  Q 622.04 256.79 624.51 251.25
  C 626.71 246.30 631.52 243.58 636.57 246.18
  Q 638.54 247.20 640.95 250.31
  Q 661.13 276.45 672.81 306.00
  C 690.20 349.98 698.19 395.42 693.79 442.74
  Q 687.84 506.76 655.86 562.37
  C 646.19 579.19 633.51 595.00 621.52 609.26
  C 609.60 623.43 595.84 633.23 579.58 646.10
  Q 570.07 653.63 559.69 659.94
  C 510.56 689.79 454.10 707.61 396.73 705.25
  C 350.34 703.34 304.90 689.40 264.44 666.28
  C 245.18 655.27 228.67 641.80 212.17 627.69
  C 190.59 609.23 172.31 586.19 157.75 561.91
  Q 152.68 553.44 148.22 544.31
  Q 112.22 470.60 119.64 389.00
  C 122.03 362.66 129.34 335.92 138.72 310.30
  C 144.82 293.64 153.23 279.19 162.50 264.17
  C 166.39 257.85 177.76 238.87 186.42 247.50
  Q 193.88 254.95 187.53 265.05
  Q 176.22 283.05 166.70 302.11
  Q 149.68 336.22 143.13 373.61
  Q 141.42 383.37 140.55 393.44
  Q 135.50 451.74 155.60 506.41
  C 168.07 540.33 186.89 572.67 212.26 599.25
  A 1.70 1.70 0.0 0 0 215.19 598.16
  Z
  M 401.66 383.97
  Q 401.93 384.17 408.49 383.95
  Q 415.50 383.71 422.49 383.69
  Q 434.04 383.67 447.86 377.29
  C 466.22 368.83 478.93 351.00 473.77 330.06
  C 473.12 327.42 470.33 321.92 473.68 320.33
  C 503.37 306.24 519.90 275.35 509.69 243.03
  Q 502.28 219.59 479.50 208.57
  C 464.85 201.49 441.50 202.37 428.30 212.54
  Q 415.76 222.20 407.59 235.70
  A 1.21 1.20 43.8 0 1 405.56 235.74
  C 396.22 221.68 382.93 208.36 365.87 204.58
  C 335.82 197.91 308.20 219.33 301.57 248.15
  C 296.84 268.71 303.03 289.88 317.51 305.06
  C 323.96 311.82 331.97 317.11 340.50 321.19
  A 1.25 1.23 22.4 0 1 341.14 322.70
  Q 331.69 350.36 350.33 367.73
  C 361.87 378.49 378.23 383.91 394.13 383.85
  Q 401.47 383.82 401.66 383.97
  Z
  M 262.14 234.50
  Q 261.04 233.45 259.82 234.41
  Q 259.43 234.71 258.94 234.73
  C 243.00 235.11 233.44 246.64 231.13 261.50
  C 230.48 265.62 230.78 273.54 232.15 278.20
  C 236.55 293.18 250.02 304.49 266.57 304.02
  A 1.76 1.76 0.0 0 0 268.18 301.65
  C 264.65 291.99 264.57 282.50 263.46 272.42
  Q 263.27 270.71 263.74 267.87
  Q 264.15 265.42 263.71 262.88
  Q 263.64 262.48 263.43 262.13
  Q 263.06 261.51 263.49 261.00
  C 264.47 259.85 264.79 259.33 265.00 258.00
  Q 266.54 248.05 267.40 237.99
  C 267.65 235.12 266.86 233.64 263.73 234.03
  Q 262.98 234.12 262.67 234.48
  Q 262.42 234.77 262.14 234.50
  Z
  M 547.88 241.88
  Q 547.80 241.75 547.64 241.66
  Q 547.32 241.49 547.21 241.84
  Q 546.76 243.21 546.92 244.26
  Q 550.12 266.11 546.99 287.97
  Q 545.95 295.18 544.81 302.50
  A 0.51 0.51 0.0 0 0 545.28 303.09
  Q 549.54 303.38 553.66 302.35
  A 1.52 1.48 -45.9 0 1 554.30 302.33
  Q 557.91 303.09 560.41 300.37
  A 1.46 1.45 14.8 0 1 561.17 299.93
  C 564.81 299.11 566.78 297.03 569.68 295.08
  C 580.95 287.53 583.78 272.87 581.79 260.76
  C 580.18 250.99 573.85 241.77 565.03 237.25
  Q 556.62 232.94 546.69 234.25
  A 1.91 1.90 81.8 0 0 545.06 236.44
  Q 545.57 239.68 547.88 241.88
  Z
  M 428.39 539.28
  Q 429.97 486.49 428.46 452.24
  Q 428.04 442.90 422.18 433.83
  C 418.79 428.59 414.46 426.28 408.73 424.44
  C 402.52 422.46 395.25 426.77 391.24 431.11
  C 382.50 440.57 380.41 451.98 378.41 464.97
  Q 377.21 472.76 376.67 480.59
  Q 374.77 508.41 375.74 536.46
  A 0.80 0.80 0.0 0 1 374.18 536.76
  Q 373.86 535.84 372.94 535.99
  Q 372.42 536.08 371.95 535.85
  Q 366.23 533.12 358.50 532.27
  Q 336.20 529.81 322.55 544.85
  C 317.01 550.96 313.90 558.41 312.66 566.51
  A 0.38 0.37 -5.6 0 0 313.16 566.92
  Q 315.38 566.10 317.38 564.73
  Q 321.46 561.92 325.94 560.01
  C 335.56 555.91 344.93 553.98 353.14 562.35
  C 356.22 565.49 357.54 569.17 359.05 573.43
  C 359.67 575.17 361.45 575.30 363.00 574.53
  Q 379.84 566.25 398.62 564.92
  C 423.80 563.14 430.07 587.43 420.78 606.10
  C 419.50 608.66 419.99 609.60 421.52 611.69
  C 438.38 634.80 460.77 650.18 489.89 650.51
  Q 490.96 650.53 492.56 650.18
  C 494.83 649.69 497.32 649.88 499.22 649.37
  C 503.77 648.15 510.57 645.86 510.31 640.01
  C 510.19 637.24 509.00 631.15 505.27 631.06
  Q 504.78 631.05 504.44 630.68
  Q 504.01 630.21 503.49 630.21
  Q 487.02 630.12 474.13 618.60
  C 461.50 607.32 451.21 590.16 452.10 573.03
  Q 452.39 567.48 454.58 564.07
  C 459.04 557.13 468.20 554.77 475.89 556.84
  Q 485.72 559.48 493.85 566.16
  A 1.38 1.38 0.0 0 0 496.04 565.53
  Q 496.10 565.37 495.78 564.32
  Q 491.40 549.98 480.32 539.94
  Q 471.55 531.99 460.00 531.74
  Q 445.92 531.43 432.72 537.70
  Q 431.68 538.20 430.80 538.07
  Q 430.42 538.01 430.17 538.30
  L 429.05 539.54
  Q 428.35 540.32 428.39 539.28
  Z
  M 322.19 667.22
  C 324.98 668.28 328.41 670.29 331.75 671.19
  Q 336.72 672.54 338.62 673.21
  Q 345.90 675.78 353.66 676.26
  Q 354.15 676.29 354.61 676.47
  Q 355.62 676.89 358.01 676.96
  C 363.35 677.13 371.34 679.56 377.57 678.48
  Q 384.61 677.27 389.98 673.45
  Q 412.97 657.10 424.80 629.91
  Q 425.02 629.39 424.62 628.99
  L 414.93 619.42
  A 1.28 1.28 0.0 0 0 413.10 619.45
  Q 396.65 636.94 374.57 645.81
  C 368.16 648.38 359.84 651.47 353.01 653.01
  Q 334.62 657.14 313.44 657.05
  Q 312.95 657.05 312.51 657.28
  C 309.86 658.67 308.58 661.71 312.10 663.18
  Q 318.02 665.64 322.19 667.22
  Z"
/>
<circle fill="#edf0ef" cx="359.27" cy="268.35" r="16.14"/>
<circle fill="#edf0ef" cx="453.59" cy="268.41" r="16.05"/>
<rect fill="#edf0ef" x="382.03" y="309.00" width="48.64" height="16.98" rx="7.86"/>
<ellipse fill="#edf0ef" cx="0.00" cy="0.00" transform="translate(406.32,355.97) rotate(87.2)" rx="6.74" ry="6.56"/>
</svg>
